<?xml version="1.0" standalone="no"?>
<!DOCTYPE svg PUBLIC "-//W3C//DTD SVG 20010904//EN"
 "http://www.w3.org/TR/2001/REC-SVG-20010904/DTD/svg10.dtd">
<svg version="1.0" xmlns="http://www.w3.org/2000/svg"
 width="367.000000pt" height="367.000000pt" viewBox="0 0 367.000000 367.000000"
 preserveAspectRatio="xMidYMid meet">
<metadata>
Created by potrace 1.11, written by Peter Selinger 2001-2013
</metadata>
<g transform="translate(0.000000,367.000000) scale(0.100000,-0.100000)"
fill="#000000" stroke="none">
<path d="M1717 3354 c-1 -1 -29 -5 -62 -9 -261 -29 -527 -136 -750 -304 -102
-76 -265 -249 -337 -356 -126 -189 -218 -410 -243 -585 -4 -24 -8 -47 -10 -50
-14 -24 -21 -270 -10 -380 7 -74 9 -91 20 -140 3 -14 8 -36 11 -50 3 -14 7
-36 10 -50 17 -86 97 -283 162 -394 51 -89 161 -231 234 -305 219 -221 490
-367 802 -432 155 -32 411 -34 574 -4 370 68 701 267 936 565 68 86 176 256
176 277 0 3 11 29 25 57 55 115 109 320 122 466 12 127 6 325 -12 404 -3 11
-7 32 -9 46 -52 307 -237 630 -489 855 -86 77 -266 202 -305 212 -14 3 -64 25
-111 48 -110 54 -213 87 -346 109 -16 3 -46 8 -65 12 -32 6 -317 13 -323 8z
m-592 -1692 c-3 -3 -11 0 -18 7 -9 10 -8 11 6 5 10 -3 15 -9 12 -12z m470
-212 c3 -6 -1 -7 -9 -4 -18 7 -21 14 -7 14 6 0 13 -4 16 -10z"/>
</g>
</svg>
